<?xml version="1.0" encoding="utf-8"?>
<!-- Generator: Adobe Illustrator 23.0.2, SVG Export Plug-In . SVG Version: 6.00 Build 0)  -->
<svg version="1.1" id="Icons" xmlns="http://www.w3.org/2000/svg" xmlns:xlink="http://www.w3.org/1999/xlink" x="0px" y="0px"
	 viewBox="0 0 56 56" style="enable-background:new 0 0 56 56;" xml:space="preserve">
<style type="text/css">
	.st0{fill:none;stroke:#e5e5e5;stroke-width:0.75;stroke-linecap:round;stroke-linejoin:round;stroke-miterlimit:10;}
</style>
<g id="Real_estate">
	<g>
		<line class="st0" x1="28" y1="6.8433" x2="28" y2="4"/>
		<line class="st0" x1="11.0294" y1="11.0294" x2="13.04" y2="13.04"/>
		<line class="st0" x1="36.0963" y1="8.4538" x2="37.1844" y2="5.8269"/>
		<line class="st0" x1="47.5462" y1="19.9037" x2="50.1731" y2="18.8156"/>
		<line class="st0" x1="18.8156" y1="5.8269" x2="19.9037" y2="8.4538"/>
		<line class="st0" x1="23.9178" y1="7.2409" x2="23.3692" y2="4.451"/>
		<line class="st0" x1="48.7591" y1="23.9178" x2="51.549" y2="23.3692"/>
		<line class="st0" x1="8.0739" y1="14.6228" x2="10.4345" y2="16.2076"/>
		<line class="st0" x1="32.1727" y1="7.2589" x2="32.7335" y2="4.4714"/>
		<line class="st0" x1="45.6168" y1="16.2844" x2="47.9843" y2="14.7099"/>
		<line class="st0" x1="14.7099" y1="8.0157" x2="16.2844" y2="10.3832"/>
	</g>
	<g>
		<line class="st0" x1="24" y1="26" x2="24" y2="52"/>
		<polyline class="st0" points="32,13.7042 20,13.7042 20,23.3333 		"/>
		<polyline class="st0" points="32,13.7042 44,21.7042 44,34.8521 		"/>
		<polyline class="st0" points="4,26 4,52 28,52 		"/>
		<rect x="8" y="28" class="st0" width="4" height="4"/>
		<rect x="8" y="36" class="st0" width="4" height="4"/>
		<rect x="16" y="28" class="st0" width="4" height="4"/>
		<rect x="36" y="28" class="st0" width="4" height="4"/>
		<rect x="36" y="36" class="st0" width="4" height="4"/>
		<rect x="28" y="28" class="st0" width="4" height="4"/>
		<rect x="28" y="20" class="st0" width="4" height="4"/>
		<rect x="28" y="36" class="st0" width="4" height="4"/>
		<rect x="28" y="44" transform="matrix(-1.836970e-16 1 -1 -1.836970e-16 76 16)" class="st0" width="4" height="4"/>
		<rect x="36" y="44" transform="matrix(-1.836970e-16 1 -1 -1.836970e-16 84 8)" class="st0" width="4" height="4"/>
		
			<rect x="43.9843" y="44" transform="matrix(-1.836970e-16 1 -1 -1.836970e-16 91.9843 0.0157)" class="st0" width="4" height="4"/>
		<rect x="16" y="36" class="st0" width="4" height="4"/>
		<rect x="8" y="44" class="st0" width="4" height="4"/>
		<rect x="16" y="44" class="st0" width="4" height="4"/>
		<line class="st0" x1="14" y1="19.3333" x2="4" y2="26"/>
		<line class="st0" x1="14" y1="19.3333" x2="24" y2="26"/>
		<line class="st0" x1="44" y1="34.8521" x2="52" y2="40.1882"/>
		<polyline class="st0" points="52,40.1882 52,52 24,52 		"/>
		<polyline class="st0" points="44,28 48,28 48,37.5188 		"/>
	</g>
</g>
</svg>
